<svg width="32" height="32" viewBox="0 0 32 32" fill="none" xmlns="http://www.w3.org/2000/svg">
<path d="M2.89045 22.8213L3.08048 7.00597L2.81507 7.35162L2.17253 8.18842L2.04584 24.4683C5.37993 25.072 9.47184 24.0263 12.1259 23.6891C13.5564 23.5074 14.5692 23.5315 14.8206 24.1304C15.5385 25.8408 16.3791 25.6597 17.0166 24.1304C17.5031 23.4535 18.3806 23.5193 19.7944 23.7816C21.8576 24.1644 25.063 24.9656 29.8625 24.4878L29.6822 8.11699L29.0552 7.38118L28.7355 7.00597L29.01 22.8213C21.4948 21.1197 18.1759 20.8306 15.8552 22.9902C13.8953 20.8837 10.7404 21.0546 2.89045 22.8213Z" fill="#94C6D6"/>
<path d="M2.04584 24.4683L2.17253 8.18842L2.81507 7.35162C2.11061 7.40088 1.80609 7.52313 1.51381 8.00363L0.944946 25.2162C1.06521 25.9311 1.28941 26.1269 1.88081 26.2255L12.1259 25.2871V23.6891C9.47184 24.0263 5.37993 25.072 2.04584 24.4683Z" fill="#F44336"/>
<path d="M29.6822 8.11699L29.8625 24.4878C25.063 24.9656 21.8576 24.1644 19.7944 23.7816V25.2871L29.8625 26.1882C30.5911 26.2457 30.9351 25.9331 30.9351 25.2663L30.3524 8.11699C30.2609 7.52828 30.0073 7.34496 29.0552 7.38118L29.6822 8.11699Z" fill="#F44336"/>
<path d="M17.0166 24.1304C16.3791 25.6597 15.5385 25.8408 14.8206 24.1304C14.5692 23.5315 13.5564 23.5074 12.1259 23.6891V25.2871L14.1021 25.1061C15.4856 26.906 16.2907 26.9276 17.7722 25.1061L19.7944 25.2871V23.7816C18.3806 23.5193 17.5031 23.4535 17.0166 24.1304Z" fill="#616161"/>
<path d="M10.5283 19.5216V19.9698C12.2394 19.6022 13.12 19.6744 14.5623 20.2621V19.7165C13.0161 19.1932 12.1303 19.1888 10.5283 19.5216Z" fill="#B4B4B4"/>
<path d="M7.72208 18.099V18.5472L10.5283 18.099L10.4309 17.6313L7.72208 18.099Z" fill="#B4B4B4"/>
<path d="M4.87684 20.2621V20.8468L9.35907 20.0672V19.5216L4.87684 20.2621Z" fill="#B4B4B4"/>
<path d="M10.0885 15.9247V16.4814C12.1935 16.1238 13.2027 16.1646 14.6446 16.7391V16.1206C12.9496 15.5695 11.9484 15.5448 10.0885 15.9247Z" fill="#B4B4B4"/>
<path d="M4.87684 18.5472V19.0539L6.59178 18.7226V18.2744L4.87684 18.5472Z" fill="#B4B4B4"/>
<path d="M4.87684 16.8009V17.2957L9.06802 16.5741V16.0484L4.87684 16.8009Z" fill="#B4B4B4"/>
<path d="M4.87684 14.9764V15.4712L7.10952 15.0692V14.6259L4.87684 14.9764Z" fill="#B4B4B4"/>
<path d="M8.17123 14.3889C8.14374 14.5847 8.11242 15.0063 8.17123 14.9764C9.29435 14.4057 13.8199 14.1823 14.6446 14.8424V14.2446C12.2393 13.7688 10.8239 13.7887 8.17123 14.3889Z" fill="#B4B4B4"/>
<path d="M11.0574 12.183L11.109 12.7396C12.7431 12.5366 13.53 12.5924 14.6446 13.0694V12.4819C13.4777 12.0874 12.667 12.0518 11.0574 12.183Z" fill="#B4B4B4"/>
<path d="M4.87684 13.1828V13.7188L10.0885 12.8633V12.317L4.87684 13.1828Z" fill="#B4B4B4"/>
<path d="M4.82116 11.4305L4.87684 11.9459L6.64566 11.616L6.58381 11.1109L4.82116 11.4305Z" fill="#B4B4B4"/>
<path d="M7.66614 10.8842L7.71768 11.4305C11.4395 10.8299 13.2016 10.6656 14.6446 11.2759V10.7089C13.3139 10.1594 11.9565 10.1223 7.66614 10.8842Z" fill="#B4B4B4"/>
<path d="M9.72773 8.81228L9.8205 9.32767C12.0379 9.05269 13.1399 9.05077 14.6446 9.54414V9.00813C13.2359 8.51472 12.2096 8.43084 9.72773 8.81228Z" fill="#B4B4B4"/>
<path d="M4.82116 9.6266L4.87684 10.1523L8.67632 9.54414V9.00813L4.82116 9.6266Z" fill="#B4B4B4"/>
<path d="M12.3975 6.73147V7.2764C13.4646 7.2645 13.9645 7.35851 14.6446 7.74026V7.1424C13.8786 6.76432 13.3681 6.71012 12.3975 6.73147Z" fill="#B4B4B4"/>
<path d="M7.39814 7.4104L7.4806 7.9258L11.3048 7.35162L11.2224 6.82285L7.39814 7.4104Z" fill="#B4B4B4"/>
<path d="M4.75931 7.87426L4.82116 8.36904L6.40858 8.10103L6.32611 7.57533L4.75931 7.87426Z" fill="#B4B4B4"/>
<path d="M17.5184 19.7165L17.5698 20.2982C19.5886 19.6208 21.0895 19.6903 24.1641 20.2982V19.7165C21.0373 19.2124 19.4421 19.0795 17.5184 19.7165Z" fill="#B4B4B4"/>
<path d="M25.208 19.9932V20.4588L27.4131 20.8338V20.2982L25.208 19.9932Z" fill="#B4B4B4"/>
<path d="M23.2744 17.8721L23.3262 18.3959L27.4131 19.0361V18.48L23.2744 17.8721Z" fill="#B4B4B4"/>
<path d="M17.5698 17.9303V18.5188C18.8604 17.9162 19.9758 17.9301 22.2333 18.1955L22.1945 17.6523C20.2293 17.4297 19.1584 17.3692 17.5698 17.9303Z" fill="#B4B4B4"/>
<path d="M26.1133 16.5335C26.1025 16.7038 26.0874 17.0483 26.1133 17.0638C26.1391 17.0793 26.9906 17.2298 27.4131 17.3031V16.7146L26.1133 16.5335Z" fill="#B4B4B4"/>
<path d="M21.6772 15.8546C21.66 16.0162 21.6358 16.3395 21.6772 16.3396C21.7186 16.3396 23.9276 16.6844 25.0269 16.8569V16.3007L21.6772 15.8546Z" fill="#B4B4B4"/>
<path d="M17.5698 16.1206V16.7391C18.4748 16.26 19.1347 16.1324 20.6555 16.2232V15.6606C19.3171 15.642 18.6114 15.698 17.5698 16.1206Z" fill="#B4B4B4"/>
<path d="M24.3414 14.4772V14.9492L27.4131 15.473V14.9492L24.3414 14.4772Z" fill="#B4B4B4"/>
<path d="M17.5698 14.309C17.5698 14.3155 17.5386 14.9601 17.5698 14.9234C18.1298 14.2644 21.9359 14.1627 23.2744 14.807V14.2446C21.0785 13.7304 19.836 13.6323 17.5698 14.309Z" fill="#B4B4B4"/>
<path d="M23.0546 12.5178V12.9899L27.4131 13.7141V13.1709L23.0546 12.5178Z" fill="#B4B4B4"/>
<path d="M17.5698 12.5307V13.1451C19.3295 12.5733 20.3004 12.5179 22.007 12.8088L21.9488 12.2268C20.1312 12.0277 19.1615 12.0623 17.5698 12.5307Z" fill="#B4B4B4"/>
<path d="M24.2056 10.8429C24.1927 11.0197 24.1746 11.3732 24.2056 11.3732C24.2367 11.3732 26.3569 11.7828 27.4131 11.9875V11.3732L24.2056 10.8429Z" fill="#B4B4B4"/>
<path d="M20.8879 10.4107L20.9372 10.9204L23.0546 11.2053V10.6792L20.8879 10.4107Z" fill="#B4B4B4"/>
<path d="M17.5698 10.7089V11.3603C18.451 10.9552 18.938 10.8781 19.8019 10.8429V10.3062C18.8956 10.326 18.4018 10.3942 17.5698 10.7089Z" fill="#B4B4B4"/>
<path d="M25.4731 9.29096L25.4408 9.81476L27.4131 10.1575V9.58843L25.4731 9.29096Z" fill="#B4B4B4"/>
<path d="M17.5698 8.9353V9.58843C19.5775 8.89174 21.1001 8.93702 24.335 9.58843V9.04523C21.3777 8.41429 19.8696 8.3402 17.5698 8.9353Z" fill="#B4B4B4"/>
<path d="M21.9941 6.93066V7.48032L27.4131 8.38564V7.78425L21.9941 6.93066Z" fill="#B4B4B4"/>
<path d="M17.5698 7.1424V7.74026C18.8108 7.37698 19.5527 7.2878 20.9465 7.31865V6.73147C19.5388 6.72735 18.7845 6.78951 17.5698 7.1424Z" fill="#B4B4B4"/>
<path fill-rule="evenodd" clip-rule="evenodd" d="M15.9397 6.73147C14.8969 5.06307 11.852 5.22527 3.08048 7.00597L2.89045 22.8213C10.7404 21.0546 13.8953 20.8837 15.8552 22.9902C18.1759 20.8306 21.4948 21.1197 29.01 22.8213L28.7355 7.00597C21.5909 5.59054 17.4082 4.68915 15.9397 6.73147ZM4.87684 20.8468V20.2621L9.35907 19.5216V20.0672L4.87684 20.8468ZM10.5283 19.9698V19.5216C12.1303 19.1888 13.0161 19.1932 14.5623 19.7165V20.2621C13.12 19.6744 12.2394 19.6022 10.5283 19.9698ZM4.87684 19.0539V18.5472L6.59178 18.2744V18.7226L4.87684 19.0539ZM7.72208 18.5472V18.099L10.4309 17.6313L10.5283 18.099L7.72208 18.5472ZM11.6392 18.0015V17.4948C12.9063 17.3994 13.5736 17.4596 14.6446 17.8832V18.4605C13.6645 17.9869 12.9906 17.9105 11.6392 18.0015ZM4.87684 17.2957V16.8009L9.06802 16.0484V16.5741L4.87684 17.2957ZM10.0885 16.4814V15.9247C11.9484 15.5448 12.9496 15.5695 14.6446 16.1206V16.7391C13.2027 16.1646 12.1935 16.1238 10.0885 16.4814ZM4.87684 15.4712V14.9764L7.10952 14.6259V15.0692L4.87684 15.4712ZM8.17123 14.9764C8.11242 15.0063 8.14374 14.5847 8.17123 14.3889C10.8239 13.7887 12.2393 13.7688 14.6446 14.2446V14.8424C13.8199 14.1823 9.29435 14.4057 8.17123 14.9764ZM4.87684 13.7188V13.1828L10.0885 12.317V12.8633L4.87684 13.7188ZM11.109 12.7396L11.0574 12.183C12.667 12.0518 13.4777 12.0874 14.6446 12.4819V13.0694C13.53 12.5924 12.7431 12.5366 11.109 12.7396ZM4.87684 11.9459L4.82116 11.4305L6.58381 11.1109L6.64566 11.616L4.87684 11.9459ZM7.71768 11.4305L7.66614 10.8842C11.9565 10.1223 13.3139 10.1594 14.6446 10.7089V11.2759C13.2016 10.6656 11.4395 10.8299 7.71768 11.4305ZM4.87684 10.1523L4.82116 9.6266L8.67632 9.00813V9.54414L4.87684 10.1523ZM9.8205 9.32767L9.72773 8.81228C12.2096 8.43084 13.2359 8.51472 14.6446 9.00813V9.54414C13.1399 9.05077 12.0379 9.05269 9.8205 9.32767ZM4.82116 8.36904L4.75931 7.87426L6.32611 7.57533L6.40858 8.10103L4.82116 8.36904ZM7.4806 7.9258L7.39814 7.4104L11.2224 6.82285L11.3048 7.35162L7.4806 7.9258ZM12.3975 7.2764V6.73147C13.3681 6.71012 13.8786 6.76432 14.6446 7.1424V7.74026C13.9645 7.35851 13.4646 7.2645 12.3975 7.2764ZM17.5698 20.2982L17.5184 19.7165C19.4421 19.0795 21.0373 19.2124 24.1641 19.7165V20.2982C21.0895 19.6903 19.5886 19.6208 17.5698 20.2982ZM17.5698 18.5188V17.9303C19.1584 17.3692 20.2293 17.4297 22.1945 17.6523L22.2333 18.1955C19.9758 17.9301 18.8604 17.9162 17.5698 18.5188ZM17.5698 16.7391V16.1206C18.6114 15.698 19.3171 15.642 20.6555 15.6606V16.2232C19.1347 16.1324 18.4748 16.26 17.5698 16.7391ZM17.5698 14.9234C17.5386 14.9601 17.5698 14.3155 17.5698 14.309C19.836 13.6323 21.0785 13.7304 23.2744 14.2446V14.807C21.9359 14.1627 18.1298 14.2644 17.5698 14.9234ZM17.5698 13.1451V12.5307C19.1615 12.0623 20.1312 12.0277 21.9488 12.2268L22.007 12.8088C20.3004 12.5179 19.3295 12.5733 17.5698 13.1451ZM17.5698 11.3603V10.7089C18.4018 10.3942 18.8956 10.326 19.8019 10.3062V10.8429C18.938 10.8781 18.451 10.9552 17.5698 11.3603ZM17.5698 9.58843V8.9353C19.8696 8.3402 21.3777 8.41429 24.335 9.04523V9.58843C21.1001 8.93702 19.5775 8.89174 17.5698 9.58843ZM17.5698 7.74026V7.1424C18.7845 6.78951 19.5388 6.72735 20.9465 6.73147V7.31865C19.5527 7.2878 18.8108 7.37698 17.5698 7.74026ZM21.9941 7.48032V6.93066L27.4131 7.78425V8.38564L21.9941 7.48032ZM25.4408 9.81476L25.4731 9.29096L27.4131 9.58843V10.1575L25.4408 9.81476ZM24.2056 11.3732C24.1746 11.3732 24.1927 11.0197 24.2056 10.8429L27.4131 11.3732V11.9875C26.3569 11.7828 24.2367 11.3732 24.2056 11.3732ZM23.0546 12.9899V12.5178L27.4131 13.1709V13.7141L23.0546 12.9899ZM24.3414 14.9492V14.4772L27.4131 14.9492V15.473L24.3414 14.9492ZM26.1133 17.0638C26.0874 17.0483 26.1025 16.7038 26.1133 16.5335L27.4131 16.7146V17.3031C26.9906 17.2298 26.1391 17.0793 26.1133 17.0638ZM23.3262 18.3959L23.2744 17.8721L27.4131 18.48V19.0361L23.3262 18.3959ZM25.208 20.4588V19.9932L27.4131 20.2982V20.8338L25.208 20.4588ZM21.6772 16.3396C21.6358 16.3395 21.66 16.0162 21.6772 15.8546L25.0269 16.3007V16.8569C23.9276 16.6844 21.7186 16.3396 21.6772 16.3396ZM20.9372 10.9204L20.8879 10.4107L23.0546 10.6792V11.2053L20.9372 10.9204Z" fill="#F5F5F5"/>
<path d="M11.6392 17.4948V18.0015C12.9906 17.9105 13.6645 17.9869 14.6446 18.4605V17.8832C13.5736 17.4596 12.9063 17.3994 11.6392 17.4948Z" fill="#B4B4B4"/>
</svg>
